<svg xmlns="http://www.w3.org/2000/svg" xmlns:xlink="http://www.w3.org/1999/xlink" xmlns:xodm="http://www.corel.com/coreldraw/odm/2003" xml:space="preserve" version="1.0" style="shape-rendering:geometricPrecision; text-rendering:geometricPrecision; image-rendering:optimizeQuality; fill-rule:evenodd; clip-rule:evenodd" viewBox="192.56 185.47 1387.25 138.64">
 <defs>
  <style type="text/css">
   <![CDATA[
    .fil2 {fill:#434242}
    .fil1 {fill:#EE682C}
    .fil17 {fill:#FEFEFE;fill-rule:nonzero}
    .fil12 {fill:#EBECEC;fill-rule:nonzero}
    .fil16 {fill:#EBECEC;fill-rule:nonzero}
    .fil5 {fill:#C5C6C6;fill-rule:nonzero}
    .fil18 {fill:#C5C6C6;fill-rule:nonzero}
    .fil10 {fill:#727271;fill-rule:nonzero}
    .fil3 {fill:#5B5B5B;fill-rule:nonzero}
    .fil4 {fill:#434242;fill-rule:nonzero}
    .fil13 {fill:#434242;fill-rule:nonzero}
    .fil0 {fill:#310A6F;fill-rule:nonzero}
    .fil15 {fill:#AE0D3E;fill-rule:nonzero}
    .fil9 {fill:#C8142F;fill-rule:nonzero}
    .fil14 {fill:#D1D1E5;fill-rule:nonzero}
    .fil8 {fill:#D25658;fill-rule:nonzero}
    .fil7 {fill:#DC132C;fill-rule:nonzero}
    .fil6 {fill:#F91228;fill-rule:nonzero}
    .fil11 {fill:white;fill-rule:nonzero}
   ]]>
  </style>
 </defs>
 <g id="Слой_x0020_1">
  <metadata id="CorelCorpID_0Corel-Layer"/>
  <path class="fil0" d="M366.75 187.47l98.34 0 0 31.59 -64.16 0 0 17.18 52.97 0 0 31.59 -52.97 0 0 18.18 64.96 0 0 31.38 -99.14 0 0 -129.92zm139.71 129.92l-35.57 0 53.77 -129.92 28.38 0 53.76 129.92 -35.77 0 -7.6 -19.18 -49.37 0 -7.6 19.18zm32.39 -81.15l-12.8 31.98 25.59 0 -12.79 -31.98zm162.69 -18.58l-33.97 6.19c-0.67,-2.26 -2.24,-4.16 -4.7,-5.69 -2.47,-1.54 -5.3,-2.3 -8.5,-2.3 -3.33,0 -6.06,0.7 -8.19,2.1 -2.13,1.39 -3.2,3.23 -3.2,5.49 0,2.27 1.93,4.53 5.8,6.8 2,0.93 4.99,2 8.99,3.2l11.99 3.59c10.13,3.2 18.39,7.26 24.79,12.2 8.53,6.39 12.79,15.79 12.79,28.18 0,12.79 -4.53,22.98 -13.59,30.58 -9.06,7.59 -20.85,11.39 -35.38,11.39 -13.46,0 -25.05,-3.26 -34.78,-9.79 -9.99,-6.8 -16.25,-15.32 -18.78,-25.59l34.77 -6.59c0.8,3.2 2.97,5.89 6.5,8.09 3.53,2.2 7.69,3.3 12.49,3.3 4.13,0 7.6,-0.8 10.39,-2.4 2.8,-1.6 4.2,-3.59 4.2,-5.99 0,-3.6 -6.73,-7.47 -20.19,-11.6 -1.59,-0.53 -2.79,-0.93 -3.59,-1.2 -9.33,-3.06 -16.72,-6.26 -22.19,-9.59 -11.59,-6.8 -17.72,-17.39 -18.39,-31.78 0,-12.13 4.13,-21.92 12.39,-29.38 8.4,-7.6 19.19,-11.4 32.38,-11.4 12,0 22.39,3 31.18,9 8.93,6 14.53,13.72 16.79,23.19zm44.38 45.77l-47.77 -75.96 39.18 0 25.58 43.98 26.98 -43.98 38.98 0 -48.77 75.16 0 54.76 -34.18 0 0 -53.96zm90.14 -75.96l61.57 0c13.85,0 25.51,4.33 34.98,13 9.32,8.52 13.99,19.32 13.99,32.38 0,8.13 -1.94,15.55 -5.8,22.28 -3.87,6.73 -9.2,12.1 -15.99,16.09l26.18 46.17 -37.97 0 -22.39 -38.97 -20.39 0 0 38.97 -34.18 0 0 -129.92zm61.57 31.59l-27.39 0 0 27.98 27.39 0c3.86,0 7.09,-1.33 9.69,-4 2.6,-2.66 3.9,-6.06 3.9,-10.19 0,-3.87 -1.3,-7.13 -3.9,-9.8 -2.6,-2.66 -5.83,-3.99 -9.69,-3.99zm123.52 -33.59c19.45,0 35.71,6.4 48.77,19.19 13.19,12.8 19.79,28.72 19.79,47.77 0,19.06 -6.6,34.98 -19.79,47.77 -13.06,12.8 -29.32,19.19 -48.77,19.19 -19.59,0 -35.98,-6.39 -49.17,-19.19 -13.06,-12.79 -19.59,-28.71 -19.59,-47.77 0,-19.05 6.53,-34.97 19.59,-47.77 13.19,-12.79 29.58,-19.19 49.17,-19.19zm-32.98 66.76c0,9.73 3.13,17.93 9.4,24.59 6.13,6.53 13.99,9.79 23.58,9.79 9.46,0 17.26,-3.26 23.39,-9.79 6.39,-6.53 9.59,-14.73 9.59,-24.59 0,-9.32 -3.2,-17.32 -9.59,-23.98 -6.26,-6.66 -14.06,-9.99 -23.39,-9.99 -9.59,0 -17.45,3.26 -23.58,9.79 -6.27,6.66 -9.4,14.72 -9.4,24.18zm179.89 -66.76c14.13,0 26.72,3.47 37.78,10.4 11.19,6.93 19.52,16.19 24.99,27.78l-33.39 12.19c-2.79,-5.46 -6.76,-9.76 -11.89,-12.89 -5.13,-3.13 -10.96,-4.69 -17.49,-4.69 -9.59,0 -17.45,3.26 -23.58,9.79 -6.27,6.66 -9.4,14.72 -9.4,24.18 0,9.73 3.13,17.93 9.4,24.59 6.13,6.53 13.99,9.79 23.58,9.79 6.53,0 12.36,-1.56 17.49,-4.69 5.13,-3.13 9.1,-7.43 11.89,-12.9l33.39 12.2c-5.34,11.72 -13.63,21.02 -24.89,27.88 -11.26,6.86 -23.89,10.29 -37.88,10.29 -19.59,0 -35.98,-6.39 -49.17,-19.19 -13.06,-12.79 -19.59,-28.71 -19.59,-47.77 0,-19.05 6.53,-34.97 19.59,-47.77 13.19,-12.79 29.58,-19.19 49.17,-19.19zm72.56 131.92l0 -129.92 34.18 0 0 46.78 36.38 -46.78 43.17 0 -49.37 63.36 53.17 66.56 -43.18 0 -40.17 -50.37 0 50.37 -34.18 0zm124.72 -129.92l98.34 0 0 31.59 -64.16 0 0 17.18 52.97 0 0 31.59 -52.97 0 0 18.18 64.96 0 0 31.38 -99.14 0 0 -129.92zm143.51 31.59l-36.77 0 0 -31.59 107.73 0 0 31.59 -36.78 0 0 98.33 -34.18 0 0 -98.33z"/>
  <g id="_1804401843376">
   <g>
    <path class="fil1" d="M219.93 277.77c-2.2,-1.18 -4.89,0.47 -7.39,1.66 -8.96,4.27 -20.07,21.72 -11.95,17.79 -5.66,5.22 -9.98,14.04 -5.82,13 -2.34,4.61 -2.11,8.45 -2.03,13.55l-0.05 0.05 -0.13 0.11 0.18 0 0.01 0.18 0.1 -0.13 0.05 -0.04c5.11,0.15 8.94,0.44 13.59,-1.83 -1.11,4.14 7.78,-0.05 13.07,-5.64 -4.05,8.07 13.57,-2.79 17.97,-11.68 1.22,-2.49 2.92,-5.15 1.77,-7.37 -6.49,-7.31 -3.84,-4.48 -9.39,-10.11 -5.55,-5.64 -2.77,-2.95 -9.98,-9.54z"/>
    <path id="1" class="fil2" d="M219.35 278.6c-1.46,-0.69 -3.48,0.31 -5.43,1.27l0 0 -0.94 0.46 -0.01 0.01c-5.01,2.38 -10.74,9.09 -13.14,13.56 -0.55,1.02 -0.91,1.9 -1.03,2.54 -0.04,0.25 -0.21,0.33 -0.15,0.36 0.18,0.07 0.66,-0.06 1.51,-0.47l6.07 -2.94 -4.96 4.57c-3.05,2.8 -5.69,6.67 -6.73,9.36 -0.28,0.72 -0.43,1.33 -0.43,1.76 0,0.15 -0.06,0.21 -0.04,0.22 0.06,0.02 0.21,0.01 0.46,-0.05l2.12 -0.54 -0.99 1.96c-2.09,4.1 -2.02,7.64 -1.94,12.16l0 0.13 0.15 0.01c4.51,0.15 8.04,0.26 12.18,-1.76l1.96 -0.96 -0.56 2.11c-0.06,0.25 -0.08,0.4 -0.05,0.46l0 0c0.01,0.03 0.06,-0.04 0.21,-0.04 0.43,0.01 1.04,-0.14 1.77,-0.41l0 0c2.71,-1 6.61,-3.58 9.46,-6.59l4.64 -4.88 -3.03 6.02c-0.42,0.84 -0.56,1.32 -0.49,1.5 0.02,0.05 0.11,-0.11 0.36,-0.15 0.65,-0.1 1.53,-0.45 2.56,-0.99 4.5,-2.33 11.29,-7.96 13.75,-12.94l0.01 0 0.47 -0.94 0 -0.01c1,-1.93 2.03,-3.94 1.34,-5.41 -1.86,-2.1 -2.45,-2.78 -2.93,-3.32 -1.03,-1.17 -1.56,-1.78 -2.05,-2.29 -0.54,-0.59 -1.04,-1.1 -2.07,-2.14l0 0 -2.2 -2.22 0 -0.01 -2.2 -2.23c-1.03,-1.05 -1.53,-1.57 -2.1,-2.11 -0.57,-0.54 -1.15,-1.07 -2.27,-2.08l0 0 -3.28 -2.98zm0.58 -0.83c-2.2,-1.18 -4.89,0.47 -7.39,1.66 -8.96,4.27 -20.07,21.72 -11.95,17.79 -5.66,5.22 -9.98,14.04 -5.82,13 -2.34,4.61 -2.11,8.45 -2.03,13.55l-0.05 0.05 -0.13 0.11 0.18 0 0.01 0.18 0.1 -0.13 0.05 -0.04c5.11,0.15 8.94,0.44 13.59,-1.83 -1.11,4.14 7.78,-0.05 13.07,-5.64 -4.05,8.07 13.57,-2.79 17.97,-11.68 1.22,-2.49 2.92,-5.15 1.77,-7.37 -6.49,-7.31 -3.84,-4.48 -9.39,-10.11 -5.55,-5.64 -2.77,-2.95 -9.98,-9.54z"/>
   </g>
   <path class="fil3" d="M246.69 293.6l-4.75 3.14c-2.15,1.41 -4.91,1.54 -7.17,0.31l0 0c-6.76,-3.63 -12.38,-9.05 -16.28,-15.65 -1.3,-2.22 -1.29,-4.98 0.05,-7.18l2.94 -4.87 25.21 24.25z"/>
   <path class="fil4" d="M244.27 293.79l-2.98 1.96c-1.32,0.87 -2.9,1.15 -4.39,0.84 -1.2,-0.68 -2.36,-1.41 -3.48,-2.2 1.24,-0.05 2.47,-0.43 3.55,-1.14l2.87 -1.89c1.43,0.88 2.91,1.69 4.43,2.43z"/>
   <path class="fil5" d="M233.42 294.4c-0.29,0.01 -0.59,0 -0.87,-0.02 -6.21,-3.76 -7.96,-5.57 -13.04,-13.58 -1.09,-1.85 -1.08,-4.14 0.03,-5.97l1.85 -3.06c0.23,0.43 0.46,0.85 0.7,1.27l-0.68 1.13c-1.33,2.2 -1.35,4.96 -0.04,7.18 2.47,4.19 7.89,10.13 12.05,13.05z"/>
   <path class="fil6" d="M202.02 269.86c3.16,-0.81 17.97,-4.75 23.75,1.25l5.3 -14.31c-0.32,-0.26 -0.67,-0.51 -1.05,-0.74l0 -0.01c-5.41,-3.4 -16.54,-4.58 -28.1,12.92 -0.08,0.13 -0.17,0.26 -0.25,0.39 -0.17,0.25 0.06,0.57 0.35,0.5z"/>
   <path class="fil7" d="M220.56 267.19c-3.61,-0.8 -8.81,-0.79 -16.32,0.92 0.13,-0.16 0.26,-0.33 0.4,-0.48 3.49,-1.36 8.69,-2.46 12.56,-2.38 1.49,0.03 2.72,-0.23 3.87,-0.79 -0.24,1.08 -0.4,2 -0.51,2.73z"/>
   <path class="fil4" d="M226.52 272.01c-0.47,0.4 -1.17,0.36 -1.6,-0.08 -1.95,-2.02 -7.46,-4.84 -22.46,-0.97l-0.14 0.04c-0.61,0.16 -1.24,-0.07 -1.6,-0.58 -0.37,-0.51 -0.38,-1.18 -0.04,-1.7 6.04,-9.29 12.59,-14.56 19.46,-15.68 6.05,-0.99 10.17,1.65 11.66,2.83 0.51,0.41 0.59,1.15 0.19,1.66 -0.41,0.51 -1.15,0.59 -1.66,0.19 -1.24,-0.99 -4.69,-3.19 -9.81,-2.36 -5.66,0.93 -11.39,5.35 -16.64,12.83 13.92,-3.23 20.04,-0.69 22.74,2.1 0.45,0.47 0.43,1.22 -0.04,1.67 -0.02,0.02 -0.04,0.03 -0.06,0.05z"/>
   <path class="fil8" d="M259.43 284.09c4.1,4.78 7.49,16.91 -11.17,30.11 -0.24,0.17 -0.57,-0.05 -0.51,-0.34 0.69,-3.19 3.78,-18.4 -2.43,-23.94l14.11 -5.83z"/>
   <path class="fil6" d="M248.26 314.2c-0.24,0.17 -0.57,-0.05 -0.51,-0.34 0.35,-1.64 1.34,-6.42 1.38,-11.45 0.03,-4.75 -0.77,-9.71 -3.75,-12.43 -0.02,-0.02 -0.04,-0.04 -0.06,-0.06l0.08 -0.03 14.03 -5.8c1.15,1.34 2.25,3.26 2.81,5.62 1.46,6.05 -0.56,14.99 -13.98,24.49z"/>
   <path class="fil9" d="M255.58 298.05c-1.51,1.26 -3.26,2.5 -5.28,3.69 -0.02,-2.55 -0.3,-5.11 -1,-7.38 2.46,-0.51 6.62,-1.59 11.91,-3.83 0.06,0.28 0.11,0.57 0.14,0.86 -1.31,2.23 -3.18,4.48 -5.77,6.66z"/>
   <path class="fil4" d="M252.88 312.13c-1.21,1.02 -2.52,2.03 -3.94,3.03 -0.51,0.36 -1.18,0.37 -1.7,0.02 -0.52,-0.34 -0.77,-0.96 -0.64,-1.57 0.89,-4.12 3.38,-17.95 -2.07,-22.81 -0.48,-0.43 -0.52,-1.18 -0.09,-1.66 0.43,-0.49 1.18,-0.53 1.66,-0.1 5.54,4.94 4.41,16.43 3.23,22.91 7.17,-5.47 11.32,-11.34 12.03,-17.06 0.68,-5.47 -1.99,-9.06 -2.82,-10.04 -0.43,-0.49 -0.37,-1.23 0.12,-1.66 0.49,-0.43 1.24,-0.36 1.67,0.13 1.27,1.48 4.14,5.61 3.37,11.86 -0.73,5.85 -4.36,11.53 -10.82,16.95z"/>
   <path class="fil6" d="M319.98 192.2c0,0 8.94,31.96 -21.27,68.03 -25.74,30.72 -52.02,33.37 -52.02,33.37 -8.94,-3.89 -16.5,-10.28 -21.83,-18.32 -1.26,-1.89 -2.38,-3.87 -3.38,-5.93 0,0 0.41,-6.53 4.48,-16.41 1.61,-3.89 3.78,-8.3 6.71,-13.03 4.59,-7.39 11.06,-15.58 20.16,-23.82 0.51,-0.47 1.02,-0.93 1.54,-1.37 2.19,-1.92 4.36,-3.68 6.52,-5.3 31.63,-23.76 59.09,-17.22 59.09,-17.22z"/>
   <path class="fil10" d="M314.89 234.09c-9.57,-14.17 -22.04,-26.17 -36.57,-35.19 17.24,-8.01 31.48,-7.9 37.94,-7.25 2.28,0.22 4.1,1.97 4.42,4.24 0.9,6.42 1.56,20.65 -5.79,38.2z"/>
   <path class="fil11" d="M319.57 193.39c-0.58,-0.68 -1.34,-1.21 -2.21,-1.5 0.87,0.29 1.63,0.82 2.21,1.5z"/>
   <path class="fil12" d="M320.76 196.53c-0.5,-0.77 -1.23,-1.4 -2.07,-1.79 -0.05,-0.29 -0.09,-0.57 -0.13,-0.84l0 -0.02c0,0.26 -0.01,0.53 -0.02,0.8 -0.44,-0.19 -0.93,-0.31 -1.43,-0.36 -5.98,-0.6 -18.66,-0.74 -34.21,5.62 -1.07,-0.53 -2.16,-1.07 -3.29,-1.63 0,0 0,0 0,0.01 0,-0.01 0,-0.01 -0.01,-0.01 16.67,-7.42 30.37,-7.3 36.66,-6.66 0.38,0.03 0.75,0.12 1.1,0.24 0.87,0.29 1.63,0.82 2.21,1.5 0.58,0.7 0.98,1.55 1.11,2.5 0.03,0.21 0.06,0.42 0.08,0.64z"/>
   <path class="fil10" d="M318.69 194.74c-0.05,-0.02 -0.1,-0.04 -0.15,-0.06 0.01,-0.27 0.02,-0.54 0.02,-0.8l0 0.02c0.04,0.27 0.08,0.55 0.13,0.84zm-35.79 5.2c-0.16,0.07 -0.32,0.13 -0.48,0.2 -0.93,-0.62 -1.87,-1.23 -2.81,-1.82 0,-0.01 0,-0.01 0,-0.01 1.13,0.56 2.22,1.1 3.29,1.63z"/>
   <path class="fil13" d="M280.8 199.08c13.34,8.61 24.7,19.54 33.82,32.54 6.3,-16.15 5.79,-29.14 4.89,-35.59 -0.24,-1.71 -1.62,-3.03 -3.34,-3.21 -6.47,-0.65 -19.47,-0.66 -35.37,6.26zm34.85 35.91c-0.18,0.15 -0.4,0.25 -0.64,0.27 -0.43,0.04 -0.85,-0.15 -1.09,-0.51 -9.55,-14.13 -21.73,-25.85 -36.22,-34.85 -0.37,-0.23 -0.58,-0.64 -0.56,-1.07 0.03,-0.43 0.29,-0.82 0.68,-1 17.31,-8.04 31.6,-8.06 38.59,-7.35 2.81,0.28 5.04,2.43 5.43,5.23 0.98,6.95 1.51,21.23 -5.86,38.84 -0.07,0.17 -0.19,0.32 -0.33,0.44z"/>
   <path class="fil13" d="M246.86 292.39c1.38,-0.19 7.43,-1.2 15.81,-5.08 8.79,-4.06 22.02,-12.19 35.13,-27.84 6.74,-8.04 12.04,-16.53 15.76,-25.25 -9.37,-13.71 -21.25,-25.14 -35.32,-33.98 -8.56,4.05 -16.84,9.68 -24.62,16.72 -15.13,13.71 -22.75,27.24 -26.47,36.18 -3.55,8.53 -4.33,14.61 -4.47,15.99 2.53,5.15 5.91,9.78 10.04,13.76 4.14,3.98 8.9,7.17 14.14,9.5zm38.07 -16.64c-8.16,6.84 -15.68,11.13 -21.39,13.75 -9.85,4.54 -16.46,5.25 -16.73,5.28 -0.2,0.02 -0.41,-0.02 -0.59,-0.1 -5.62,-2.45 -10.71,-5.85 -15.13,-10.1 -4.41,-4.25 -8.01,-9.2 -10.67,-14.72 -0.09,-0.18 -0.13,-0.38 -0.11,-0.58 0.01,-0.28 0.47,-6.91 4.62,-16.92 3.81,-9.2 11.6,-23.1 27.11,-37.15 8.12,-7.36 16.8,-13.21 25.78,-17.38 0.36,-0.17 0.78,-0.14 1.12,0.07 14.77,9.17 27.19,21.12 36.92,35.52 0.23,0.32 0.28,0.75 0.12,1.13 -3.82,9.13 -9.33,18.03 -16.37,26.43 -4.95,5.91 -9.93,10.77 -14.68,14.77z"/>
   <path class="fil4" d="M247.45 294.51c-0.04,0.02 -0.07,0.05 -0.11,0.08l-4.75 3.13c-2.52,1.66 -5.73,1.8 -8.38,0.37 -6.94,-3.74 -12.73,-9.3 -16.73,-16.09 -1.53,-2.6 -1.51,-5.81 0.05,-8.39l2.94 -4.87c0.34,-0.56 1.07,-0.74 1.62,-0.4 0.56,0.34 0.74,1.06 0.4,1.62l-2.95 4.87c-1.11,1.83 -1.12,4.12 -0.03,5.97 3.78,6.42 9.25,11.68 15.81,15.22 1.89,1.01 4.18,0.91 5.97,-0.27l4.75 -3.13c0.54,-0.36 1.28,-0.21 1.63,0.34 0.34,0.5 0.23,1.17 -0.22,1.55z"/>
   <path class="fil11" d="M245.27 270.46c-0.01,0 -0.08,0 -0.21,0.01 -1,0.04 -5.3,0.34 -9.45,2.46 0,0 0,0 0,0 4.15,-2.12 8.45,-2.42 9.45,-2.46 0.14,-0.01 0.21,-0.01 0.21,-0.01l0 0z"/>
   <path class="fil14" d="M235.61 272.93c-1.12,0.57 -2.23,1.27 -3.26,2.14 -0.41,0.34 -0.8,0.7 -1.18,1.1 -0.01,0.01 -0.03,0.02 -0.04,0.03 0.01,-0.01 0.03,-0.02 0.04,-0.03 0.38,-0.4 0.77,-0.76 1.18,-1.1 1.03,-0.87 2.14,-1.57 3.26,-2.14 0,0 0,0 0,0z"/>
   <path class="fil6" d="M280.49 254.35c-5.56,5.78 -14.74,5.95 -20.51,0.4 -5.78,-5.56 -5.95,-14.74 -0.4,-20.51 5.56,-5.77 14.74,-5.95 20.51,-0.4 5.77,5.56 5.95,14.74 0.4,20.51z"/>
   <path class="fil15" d="M278.58 254.52c-2.32,1.95 -5.22,3.04 -8.29,3.1 -0.22,0.01 -0.44,0 -0.66,0 0.57,-0.83 0.99,-1.71 1.25,-2.62 2.44,-0.43 4.78,-1.49 6.77,-3.16 0.4,-0.33 0.78,-0.69 1.15,-1.07 2.73,-2.84 4.07,-6.51 4.04,-10.17 0.32,1.11 0.5,2.26 0.52,3.44 0.07,3.56 -1.25,6.93 -3.72,9.5 -0.34,0.35 -0.69,0.68 -1.06,0.98z"/>
   <path class="fil4" d="M261.49 234.07c-0.37,0.31 -0.72,0.64 -1.06,0.99 -2.47,2.56 -3.79,5.93 -3.72,9.49 0.07,3.56 1.52,6.88 4.08,9.35 2.57,2.47 5.94,3.79 9.5,3.72 3.56,-0.07 6.88,-1.52 9.35,-4.08 2.47,-2.57 3.79,-5.94 3.72,-9.5 -0.07,-3.56 -1.52,-6.88 -4.09,-9.35 -2.56,-2.46 -5.93,-3.79 -9.49,-3.72 -3.08,0.06 -5.97,1.15 -8.29,3.1zm18.6 22.26c-2.73,2.29 -6.14,3.58 -9.75,3.65 -4.19,0.08 -8.16,-1.48 -11.18,-4.38 -3.02,-2.91 -4.72,-6.81 -4.81,-11 -0.08,-4.19 1.48,-8.16 4.38,-11.18 2.91,-3.01 6.81,-4.72 11,-4.8 4.19,-0.08 8.16,1.47 11.18,4.38 3.02,2.9 4.72,6.81 4.8,10.99 0.08,4.19 -1.47,8.16 -4.38,11.18 -0.39,0.41 -0.81,0.8 -1.24,1.16z"/>
   <path class="fil16" d="M276.68 250.45c-3.53,3.67 -9.38,3.79 -13.05,0.25 -3.67,-3.53 -3.78,-9.37 -0.25,-13.05 3.53,-3.67 9.38,-3.78 13.05,-0.25 3.67,3.54 3.78,9.38 0.25,13.05z"/>
   <path class="fil17" d="M275.19 250.23c-1.15,0.96 -2.53,1.58 -4.01,1.79 -0.01,-0.13 -0.02,-0.27 -0.04,-0.4 -0.04,-0.37 -0.1,-0.72 -0.18,-1.07 1.2,-0.35 2.33,-0.94 3.33,-1.78 0.25,-0.21 0.49,-0.43 0.72,-0.68 1.84,-1.9 2.69,-4.39 2.57,-6.83 0.31,0.83 0.48,1.72 0.5,2.64 0.04,2.15 -0.76,4.18 -2.25,5.73l0 0c-0.2,0.22 -0.42,0.41 -0.64,0.6z"/>
   <path class="fil18" d="M275.93 238.58c-3.19,-1.52 -7.08,-1.09 -9.88,1.26 -0.25,0.21 -0.49,0.44 -0.72,0.68 -0.55,0.57 -1.01,1.19 -1.38,1.84 -0.56,-0.28 -1.1,-0.52 -1.6,-0.72 0.36,-1.18 1,-2.26 1.88,-3.17 0.2,-0.21 0.41,-0.41 0.63,-0.59 3.11,-2.61 7.76,-2.5 10.75,0.37 0.11,0.11 0.22,0.22 0.32,0.33z"/>
   <path class="fil4" d="M264.86 237.88c-0.22,0.18 -0.43,0.38 -0.63,0.59 -1.49,1.55 -2.29,3.59 -2.25,5.74 0.04,2.15 0.92,4.15 2.47,5.64 1.55,1.49 3.59,2.29 5.74,2.25 2.14,-0.04 4.15,-0.92 5.64,-2.47l0 0c1.49,-1.55 2.29,-3.58 2.25,-5.73 -0.04,-2.15 -0.92,-4.16 -2.47,-5.65 -2.99,-2.87 -7.64,-2.98 -10.75,-0.37zm11.84 14.16c-1.81,1.52 -4.07,2.37 -6.47,2.42 -2.78,0.05 -5.41,-0.98 -7.42,-2.91 -2,-1.93 -3.13,-4.52 -3.18,-7.3 -0.06,-2.78 0.97,-5.41 2.9,-7.41 3.98,-4.14 10.58,-4.26 14.71,-0.29 4.14,3.98 4.27,10.58 0.29,14.72l0 0c-0.27,0.27 -0.54,0.53 -0.83,0.77z"/>
   <path class="fil1" d="M219.93 277.77c-2.2,-1.18 -4.89,0.47 -7.39,1.66 -8.96,4.27 -20.07,21.72 -11.95,17.79 -5.66,5.22 -9.98,14.04 -5.82,13 -2.34,4.61 -2.11,8.45 -2.03,13.55l-0.05 0.05 -0.13 0.11 0.18 0 0.01 0.18 0.1 -0.13 0.05 -0.04c5.11,0.15 8.94,0.44 13.59,-1.83 -1.11,4.14 7.78,-0.05 13.07,-5.64 -4.05,8.07 13.57,-2.79 17.97,-11.68 1.22,-2.49 2.92,-5.15 1.77,-7.37 -6.49,-7.31 -3.84,-4.48 -9.39,-10.11 -5.55,-5.64 -2.77,-2.95 -9.98,-9.54z"/>
   <path class="fil2" d="M218.67 279.69c-0.94,-0.29 -2.59,0.53 -4.19,1.32l-0.95 0.46c-4.79,2.28 -10.28,8.73 -12.59,13.03l-0.03 0.06 12.42 -5.99 -11.2 10.32c-2.85,2.62 -5.33,6.2 -6.35,8.74l3.25 -0.82 -2.24 4.42c-1.78,3.51 -1.88,6.66 -1.82,10.51 3.84,0.11 6.99,0.06 10.52,-1.66l4.44 -2.17 -0.85 3.22c2.55,-0.98 6.17,-3.4 8.84,-6.22l10.54 -11.11 -6.23 12.4 0.07 -0.04c4.33,-2.25 10.86,-7.64 13.19,-12.37l0.49 -0.96c0.82,-1.6 1.67,-3.25 1.38,-4.19l-4.81 -5.41 -8.51 -8.64 -5.37 -4.9zm1.26 -1.92c-2.2,-1.18 -4.89,0.47 -7.39,1.66 -8.96,4.27 -20.07,21.72 -11.95,17.79 -5.66,5.22 -9.98,14.04 -5.82,13 -2.34,4.61 -2.11,8.45 -2.03,13.55l-0.18 0.16 0.18 0 0.01 0.18 0.15 -0.17c5.11,0.15 8.94,0.44 13.59,-1.83 -1.11,4.14 7.78,-0.05 13.07,-5.64 -4.05,8.07 13.57,-2.79 17.96,-11.68 1.23,-2.49 2.93,-5.15 1.78,-7.37 -6.49,-7.31 -3.84,-4.48 -9.39,-10.11 -5.55,-5.64 -2.77,-2.95 -9.98,-9.54z"/>
   <path class="fil3" d="M246.69 293.6l-4.75 3.14c-2.15,1.41 -4.91,1.54 -7.17,0.31l0 0c-6.76,-3.63 -12.38,-9.05 -16.28,-15.65 -1.3,-2.22 -1.29,-4.98 0.05,-7.18l2.94 -4.87 25.21 24.25z"/>
   <path class="fil4" d="M244.27 293.79l-2.98 1.96c-1.32,0.87 -2.9,1.15 -4.39,0.84 -1.2,-0.68 -2.36,-1.41 -3.48,-2.2 1.24,-0.05 2.47,-0.43 3.55,-1.14l2.87 -1.89c1.43,0.88 2.91,1.69 4.43,2.43z"/>
   <path class="fil5" d="M233.42 294.4c-0.29,0.01 -0.59,0 -0.87,-0.02 -6.21,-3.76 -7.96,-5.57 -13.04,-13.58 -1.09,-1.85 -1.08,-4.14 0.03,-5.97l1.85 -3.06c0.23,0.43 0.46,0.85 0.7,1.27l-0.68 1.13c-1.33,2.2 -1.35,4.96 -0.04,7.18 2.47,4.19 7.89,10.13 12.05,13.05z"/>
   <path class="fil6" d="M202.02 269.86c3.16,-0.81 17.97,-4.75 23.75,1.25l5.3 -14.31c-0.32,-0.26 -0.67,-0.51 -1.05,-0.74l0 -0.01c-5.41,-3.4 -16.54,-4.58 -28.1,12.92 -0.08,0.13 -0.17,0.26 -0.25,0.39 -0.17,0.25 0.06,0.57 0.35,0.5z"/>
   <path class="fil7" d="M220.56 267.19c-3.61,-0.8 -8.81,-0.79 -16.32,0.92 0.13,-0.16 0.26,-0.33 0.4,-0.48 3.49,-1.36 8.69,-2.46 12.56,-2.38 1.49,0.03 2.72,-0.23 3.87,-0.79 -0.24,1.08 -0.4,2 -0.51,2.73z"/>
   <path class="fil4" d="M226.52 272.01c-0.47,0.4 -1.17,0.36 -1.6,-0.08 -1.95,-2.02 -7.46,-4.84 -22.46,-0.97l-0.14 0.04c-0.61,0.16 -1.24,-0.07 -1.6,-0.58 -0.37,-0.51 -0.38,-1.18 -0.04,-1.7 6.04,-9.29 12.59,-14.56 19.46,-15.68 6.05,-0.99 10.17,1.65 11.66,2.83 0.51,0.41 0.59,1.15 0.19,1.66 -0.41,0.51 -1.15,0.59 -1.66,0.19 -1.24,-0.99 -4.69,-3.19 -9.81,-2.36 -5.66,0.93 -11.39,5.35 -16.64,12.83 13.92,-3.23 20.04,-0.69 22.74,2.1 0.45,0.47 0.43,1.22 -0.04,1.67 -0.02,0.02 -0.04,0.03 -0.06,0.05z"/>
   <path class="fil8" d="M259.43 284.09c4.1,4.78 7.49,16.91 -11.17,30.11 -0.24,0.17 -0.57,-0.05 -0.51,-0.34 0.69,-3.19 3.78,-18.4 -2.43,-23.94l14.11 -5.83z"/>
   <path class="fil6" d="M248.26 314.2c-0.24,0.17 -0.57,-0.05 -0.51,-0.34 0.35,-1.64 1.34,-6.42 1.38,-11.45 0.03,-4.75 -0.77,-9.71 -3.75,-12.43 -0.02,-0.02 -0.04,-0.04 -0.06,-0.06l0.08 -0.03 14.03 -5.8c1.15,1.34 2.25,3.26 2.81,5.62 1.46,6.05 -0.56,14.99 -13.98,24.49z"/>
   <path class="fil9" d="M255.58 298.05c-1.51,1.26 -3.26,2.5 -5.28,3.69 -0.02,-2.55 -0.3,-5.11 -1,-7.38 2.46,-0.51 6.62,-1.59 11.91,-3.83 0.06,0.28 0.11,0.57 0.14,0.86 -1.31,2.23 -3.18,4.48 -5.77,6.66z"/>
   <path class="fil4" d="M252.88 312.13c-1.21,1.02 -2.52,2.03 -3.94,3.03 -0.51,0.36 -1.18,0.37 -1.7,0.02 -0.52,-0.34 -0.77,-0.96 -0.64,-1.57 0.89,-4.12 3.38,-17.95 -2.07,-22.81 -0.48,-0.43 -0.52,-1.18 -0.09,-1.66 0.43,-0.49 1.18,-0.53 1.66,-0.1 5.54,4.94 4.41,16.43 3.23,22.91 7.17,-5.47 11.32,-11.34 12.03,-17.06 0.68,-5.47 -1.99,-9.06 -2.82,-10.04 -0.43,-0.49 -0.37,-1.23 0.12,-1.66 0.49,-0.43 1.24,-0.36 1.67,0.13 1.27,1.48 4.14,5.61 3.37,11.86 -0.73,5.85 -4.36,11.53 -10.82,16.95z"/>
   <path class="fil6" d="M319.98 192.2c0,0 8.94,31.96 -21.27,68.03 -25.74,30.72 -52.02,33.37 -52.02,33.37 -8.94,-3.89 -16.5,-10.28 -21.83,-18.32 -1.26,-1.89 -2.38,-3.87 -3.38,-5.93 0,0 0.41,-6.53 4.48,-16.41 1.61,-3.89 3.78,-8.3 6.71,-13.03 4.59,-7.39 11.06,-15.58 20.16,-23.82 0.51,-0.47 1.02,-0.93 1.54,-1.37 2.19,-1.92 4.36,-3.68 6.52,-5.3 31.63,-23.76 59.09,-17.22 59.09,-17.22z"/>
   <path class="fil10" d="M314.89 234.09c-9.57,-14.17 -22.04,-26.17 -36.57,-35.19 17.24,-8.01 31.48,-7.9 37.94,-7.25 2.28,0.22 4.1,1.97 4.42,4.24 0.9,6.42 1.56,20.65 -5.79,38.2z"/>
   <path class="fil11" d="M319.57 193.39c-0.58,-0.68 -1.34,-1.21 -2.21,-1.5 0.87,0.29 1.63,0.82 2.21,1.5z"/>
   <path class="fil12" d="M320.76 196.53c-0.5,-0.77 -1.23,-1.4 -2.07,-1.79 -0.05,-0.29 -0.09,-0.57 -0.13,-0.84l0 -0.02c0,0.26 -0.01,0.53 -0.02,0.8 -0.44,-0.19 -0.93,-0.31 -1.43,-0.36 -5.98,-0.6 -18.66,-0.74 -34.21,5.62 -1.07,-0.53 -2.16,-1.07 -3.29,-1.63 0,0 0,0 0,0.01 0,-0.01 0,-0.01 -0.01,-0.01 16.67,-7.42 30.37,-7.3 36.66,-6.66 0.38,0.03 0.75,0.12 1.1,0.24 0.87,0.29 1.63,0.82 2.21,1.5 0.58,0.7 0.98,1.55 1.11,2.5 0.03,0.21 0.06,0.42 0.08,0.64z"/>
   <path class="fil10" d="M318.69 194.74c-0.05,-0.02 -0.1,-0.04 -0.15,-0.06 0.01,-0.27 0.02,-0.54 0.02,-0.8l0 0.02c0.04,0.27 0.08,0.55 0.13,0.84zm-35.79 5.2c-0.16,0.07 -0.32,0.13 -0.48,0.2 -0.93,-0.62 -1.87,-1.23 -2.81,-1.82 0,-0.01 0,-0.01 0,-0.01 1.13,0.56 2.22,1.1 3.29,1.63z"/>
   <path class="fil13" d="M280.8 199.08c13.34,8.61 24.7,19.54 33.82,32.54 6.3,-16.15 5.79,-29.14 4.89,-35.59 -0.24,-1.71 -1.62,-3.03 -3.34,-3.21 -6.47,-0.65 -19.47,-0.66 -35.37,6.26zm34.85 35.91c-0.18,0.15 -0.4,0.25 -0.64,0.27 -0.43,0.04 -0.85,-0.15 -1.09,-0.51 -9.55,-14.13 -21.73,-25.85 -36.22,-34.85 -0.37,-0.23 -0.58,-0.64 -0.56,-1.07 0.03,-0.43 0.29,-0.82 0.68,-1 17.31,-8.04 31.6,-8.06 38.59,-7.35 2.81,0.28 5.04,2.43 5.43,5.23 0.98,6.95 1.51,21.23 -5.86,38.84 -0.07,0.17 -0.19,0.32 -0.33,0.44z"/>
   <path class="fil13" d="M246.86 292.39c1.38,-0.19 7.43,-1.2 15.81,-5.08 8.79,-4.06 22.02,-12.19 35.13,-27.84 6.74,-8.04 12.04,-16.53 15.76,-25.25 -9.37,-13.71 -21.25,-25.14 -35.32,-33.98 -8.56,4.05 -16.84,9.68 -24.62,16.72 -15.13,13.71 -22.75,27.24 -26.47,36.18 -3.55,8.53 -4.33,14.61 -4.47,15.99 2.53,5.15 5.91,9.78 10.04,13.76 4.14,3.98 8.9,7.17 14.14,9.5zm38.07 -16.64c-8.16,6.84 -15.68,11.13 -21.39,13.75 -9.85,4.54 -16.46,5.25 -16.73,5.28 -0.2,0.02 -0.41,-0.02 -0.59,-0.1 -5.62,-2.45 -10.71,-5.85 -15.13,-10.1 -4.41,-4.25 -8.01,-9.2 -10.67,-14.72 -0.09,-0.18 -0.13,-0.38 -0.11,-0.58 0.01,-0.28 0.47,-6.91 4.62,-16.92 3.81,-9.2 11.6,-23.1 27.11,-37.15 8.12,-7.36 16.8,-13.21 25.78,-17.38 0.36,-0.17 0.78,-0.14 1.12,0.07 14.77,9.17 27.19,21.12 36.92,35.52 0.23,0.32 0.28,0.75 0.12,1.13 -3.82,9.13 -9.33,18.03 -16.37,26.43 -4.95,5.91 -9.93,10.77 -14.68,14.77z"/>
   <path class="fil4" d="M247.45 294.51c-0.04,0.02 -0.07,0.05 -0.11,0.08l-4.75 3.13c-2.52,1.66 -5.73,1.8 -8.38,0.37 -6.94,-3.74 -12.73,-9.3 -16.73,-16.09 -1.53,-2.6 -1.51,-5.81 0.05,-8.39l2.94 -4.87c0.34,-0.56 1.07,-0.74 1.62,-0.4 0.56,0.34 0.74,1.06 0.4,1.62l-2.95 4.87c-1.11,1.83 -1.12,4.12 -0.03,5.97 3.78,6.42 9.25,11.68 15.81,15.22 1.89,1.01 4.18,0.91 5.97,-0.27l4.75 -3.13c0.54,-0.36 1.28,-0.21 1.63,0.34 0.34,0.5 0.23,1.17 -0.22,1.55z"/>
   <path class="fil11" d="M245.27 270.46c-0.01,0 -0.08,0 -0.21,0.01 -1,0.04 -5.3,0.34 -9.45,2.46 0,0 0,0 0,0 4.15,-2.12 8.45,-2.42 9.45,-2.46 0.14,-0.01 0.21,-0.01 0.21,-0.01l0 0z"/>
   <path class="fil14" d="M235.61 272.93c-1.12,0.57 -2.23,1.27 -3.26,2.14 -0.41,0.34 -0.8,0.7 -1.18,1.1 -0.01,0.01 -0.03,0.02 -0.04,0.03 0.01,-0.01 0.03,-0.02 0.04,-0.03 0.38,-0.4 0.77,-0.76 1.18,-1.1 1.03,-0.87 2.14,-1.57 3.26,-2.14 0,0 0,0 0,0z"/>
   <path class="fil6" d="M280.49 254.35c-5.56,5.78 -14.74,5.95 -20.51,0.4 -5.78,-5.56 -5.95,-14.74 -0.4,-20.51 5.56,-5.77 14.74,-5.95 20.51,-0.4 5.77,5.56 5.95,14.74 0.4,20.51z"/>
   <path class="fil15" d="M278.58 254.52c-2.32,1.95 -5.22,3.04 -8.29,3.1 -0.22,0.01 -0.44,0 -0.66,0 0.57,-0.83 0.99,-1.71 1.25,-2.62 2.44,-0.43 4.78,-1.49 6.77,-3.16 0.4,-0.33 0.78,-0.69 1.15,-1.07 2.73,-2.84 4.07,-6.51 4.04,-10.17 0.32,1.11 0.5,2.26 0.52,3.44 0.07,3.56 -1.25,6.93 -3.72,9.5 -0.34,0.35 -0.69,0.68 -1.06,0.98z"/>
   <path class="fil4" d="M261.49 234.07c-0.37,0.31 -0.72,0.64 -1.06,0.99 -2.47,2.56 -3.79,5.93 -3.72,9.49 0.07,3.56 1.52,6.88 4.08,9.35 2.57,2.47 5.94,3.79 9.5,3.72 3.56,-0.07 6.88,-1.52 9.35,-4.08 2.47,-2.57 3.79,-5.94 3.72,-9.5 -0.07,-3.56 -1.52,-6.88 -4.09,-9.35 -2.56,-2.46 -5.93,-3.79 -9.49,-3.72 -3.08,0.06 -5.97,1.15 -8.29,3.1zm18.6 22.26c-2.73,2.29 -6.14,3.58 -9.75,3.65 -4.19,0.08 -8.16,-1.48 -11.18,-4.38 -3.02,-2.91 -4.72,-6.81 -4.81,-11 -0.08,-4.19 1.48,-8.16 4.38,-11.18 2.91,-3.01 6.81,-4.72 11,-4.8 4.19,-0.08 8.16,1.47 11.18,4.38 3.02,2.9 4.72,6.81 4.8,10.99 0.08,4.19 -1.47,8.16 -4.38,11.18 -0.39,0.41 -0.81,0.8 -1.24,1.16z"/>
   <path class="fil16" d="M276.68 250.45c-3.53,3.67 -9.38,3.79 -13.05,0.25 -3.67,-3.53 -3.78,-9.37 -0.25,-13.05 3.53,-3.67 9.38,-3.78 13.05,-0.25 3.67,3.54 3.78,9.38 0.25,13.05z"/>
   <path class="fil17" d="M275.19 250.23c-1.15,0.96 -2.53,1.58 -4.01,1.79 -0.01,-0.13 -0.02,-0.27 -0.04,-0.4 -0.04,-0.37 -0.1,-0.72 -0.18,-1.07 1.2,-0.35 2.33,-0.94 3.33,-1.78 0.25,-0.21 0.49,-0.43 0.72,-0.68 1.84,-1.9 2.69,-4.39 2.57,-6.83 0.31,0.83 0.48,1.72 0.5,2.64 0.04,2.15 -0.76,4.18 -2.25,5.73l0 0c-0.2,0.22 -0.42,0.41 -0.64,0.6z"/>
   <path class="fil18" d="M275.93 238.58c-3.19,-1.52 -7.08,-1.09 -9.88,1.26 -0.25,0.21 -0.49,0.44 -0.72,0.68 -0.55,0.57 -1.01,1.19 -1.38,1.84 -0.56,-0.28 -1.1,-0.52 -1.6,-0.72 0.36,-1.18 1,-2.26 1.88,-3.17 0.2,-0.21 0.41,-0.41 0.63,-0.59 3.11,-2.61 7.76,-2.5 10.75,0.37 0.11,0.11 0.22,0.22 0.32,0.33z"/>
   <path class="fil4" d="M264.86 237.88c-0.22,0.18 -0.43,0.38 -0.63,0.59 -1.49,1.55 -2.29,3.59 -2.25,5.74 0.04,2.15 0.92,4.15 2.47,5.64 1.55,1.49 3.59,2.29 5.74,2.25 2.14,-0.04 4.15,-0.92 5.64,-2.47l0 0c1.49,-1.55 2.29,-3.58 2.25,-5.73 -0.04,-2.15 -0.92,-4.16 -2.47,-5.65 -2.99,-2.87 -7.64,-2.98 -10.75,-0.37zm11.84 14.16c-1.81,1.52 -4.07,2.37 -6.47,2.42 -2.78,0.05 -5.41,-0.98 -7.42,-2.91 -2,-1.93 -3.13,-4.52 -3.18,-7.3 -0.06,-2.78 0.97,-5.41 2.9,-7.41 3.98,-4.14 10.58,-4.26 14.71,-0.29 4.14,3.98 4.27,10.58 0.29,14.72l0 0c-0.27,0.27 -0.54,0.53 -0.83,0.77z"/>
  </g>
 </g>
</svg>